<svg xmlns="http://www.w3.org/2000/svg" viewBox="0 0 880 470" width="880" height="470" role="img" aria-label="ChordLoop — architecture">
<rect x="0" y="0" width="880" height="470" rx="14" fill="#0e1116"/>
<text x="30" y="44" font-family="-apple-system,BlinkMacSystemFont,Segoe UI,Roboto,Helvetica,Arial,sans-serif" font-size="22" fill="#e6edf3" text-anchor="start" font-weight="700" letter-spacing="0">ChordLoop — architecture</text>
<text x="30" y="68" font-family="-apple-system,BlinkMacSystemFont,Segoe UI,Roboto,Helvetica,Arial,sans-serif" font-size="13" fill="#8b949e" text-anchor="start" font-weight="400" letter-spacing="0">Two clock layers into one shift register; two RP2040 cores, no locks in the audio path.</text>
<defs><marker id="ah" markerWidth="9" markerHeight="9" refX="7" refY="3" orient="auto"><path d="M0,0 L7,3 L0,6 Z" fill="#8b949e"/></marker></defs>
<rect x="24" y="96" width="832" height="214" rx="12" fill="#10151c" stroke="#2b333e" stroke-width="1"/>
<text x="40" y="120" font-family="-apple-system,BlinkMacSystemFont,Segoe UI,Roboto,Helvetica,Arial,sans-serif" font-size="11" fill="#8b949e" text-anchor="start" font-weight="700" letter-spacing="1">CORE 0 — 48 kHz audio ISR (ComputerCard::Run)</text>
<rect x="40" y="140" width="150" height="54" rx="7" fill="#1c232d" stroke="#2b333e" stroke-width="1"/><rect x="40" y="140" width="4" height="54" rx="2" fill="#a78bfa"/><text x="56" y="165" font-family="ui-monospace,SFMono-Regular,Menlo,Consolas,monospace" font-size="13.5" fill="#e6edf3" text-anchor="start" font-weight="650" letter-spacing="0">Clock ÷ N</text><text x="56" y="185" font-family="-apple-system,BlinkMacSystemFont,Segoe UI,Roboto,Helvetica,Arial,sans-serif" font-size="12" fill="#8b949e" text-anchor="start" font-weight="400" letter-spacing="0">chord clock</text>
<rect x="210" y="140" width="168" height="54" rx="7" fill="#1c232d" stroke="#2b333e" stroke-width="1"/><rect x="210" y="140" width="4" height="54" rx="2" fill="#fbbf24"/><text x="226" y="165" font-family="ui-monospace,SFMono-Regular,Menlo,Consolas,monospace" font-size="13.5" fill="#e6edf3" text-anchor="start" font-weight="650" letter-spacing="0">Turing register</text><text x="226" y="185" font-family="-apple-system,BlinkMacSystemFont,Segoe UI,Roboto,Helvetica,Arial,sans-serif" font-size="12" fill="#8b949e" text-anchor="start" font-weight="400" letter-spacing="0">16-bit, mutate p</text>
<rect x="398" y="140" width="180" height="54" rx="7" fill="#1c232d" stroke="#2b333e" stroke-width="1"/><rect x="398" y="140" width="4" height="54" rx="2" fill="#a78bfa"/><text x="414" y="165" font-family="ui-monospace,SFMono-Regular,Menlo,Consolas,monospace" font-size="13.5" fill="#e6edf3" text-anchor="start" font-weight="650" letter-spacing="0">Group → degree</text><text x="414" y="185" font-family="-apple-system,BlinkMacSystemFont,Segoe UI,Roboto,Helvetica,Arial,sans-serif" font-size="12" fill="#8b949e" text-anchor="start" font-weight="400" letter-spacing="0">table → ChordDef</text>
<rect x="598" y="140" width="238" height="54" rx="7" fill="#1c232d" stroke="#2b333e" stroke-width="1"/><rect x="598" y="140" width="4" height="54" rx="2" fill="#3fb950"/><text x="614" y="165" font-family="ui-monospace,SFMono-Regular,Menlo,Consolas,monospace" font-size="13.5" fill="#e6edf3" text-anchor="start" font-weight="650" letter-spacing="0">decode(tonic, scale)</text><text x="614" y="185" font-family="-apple-system,BlinkMacSystemFont,Segoe UI,Roboto,Helvetica,Arial,sans-serif" font-size="12" fill="#8b949e" text-anchor="start" font-weight="400" letter-spacing="0">diatonic chord</text>
<line x1="190" y1="167" x2="208" y2="167" stroke="#8b949e" stroke-width="2" marker-end="url(#ah)"/>
<line x1="378" y1="167" x2="396" y2="167" stroke="#8b949e" stroke-width="2" marker-end="url(#ah)"/>
<line x1="578" y1="167" x2="596" y2="167" stroke="#8b949e" stroke-width="2" marker-end="url(#ah)"/>
<rect x="40" y="230" width="140" height="46" rx="7" fill="#1c232d" stroke="#2b333e" stroke-width="1"/><rect x="40" y="230" width="4" height="46" rx="2" fill="#38bdf8"/><text x="56" y="255" font-family="ui-monospace,SFMono-Regular,Menlo,Consolas,monospace" font-size="13.5" fill="#e6edf3" text-anchor="start" font-weight="650" letter-spacing="0">CV1 root</text>
<rect x="190" y="230" width="140" height="46" rx="7" fill="#1c232d" stroke="#2b333e" stroke-width="1"/><rect x="190" y="230" width="4" height="46" rx="2" fill="#38bdf8"/><text x="206" y="255" font-family="ui-monospace,SFMono-Regular,Menlo,Consolas,monospace" font-size="13.5" fill="#e6edf3" text-anchor="start" font-weight="650" letter-spacing="0">CV2 arp</text>
<rect x="340" y="230" width="140" height="46" rx="7" fill="#1c232d" stroke="#2b333e" stroke-width="1"/><rect x="340" y="230" width="4" height="46" rx="2" fill="#fb923c"/><text x="356" y="255" font-family="ui-monospace,SFMono-Regular,Menlo,Consolas,monospace" font-size="13.5" fill="#e6edf3" text-anchor="start" font-weight="650" letter-spacing="0">Pad L/R audio</text>
<rect x="540" y="230" width="160" height="46" rx="7" fill="#1c232d" stroke="#2b333e" stroke-width="1"/><rect x="540" y="230" width="4" height="46" rx="2" fill="#f472b6"/><text x="556" y="255" font-family="ui-monospace,SFMono-Regular,Menlo,Consolas,monospace" font-size="13.5" fill="#e6edf3" text-anchor="start" font-weight="650" letter-spacing="0">Pulse triggers</text>
<rect x="720" y="230" width="140" height="46" rx="7" fill="#1c232d" stroke="#2b333e" stroke-width="1"/><rect x="720" y="230" width="4" height="46" rx="2" fill="#fbbf24"/><text x="736" y="255" font-family="ui-monospace,SFMono-Regular,Menlo,Consolas,monospace" font-size="13.5" fill="#e6edf3" text-anchor="start" font-weight="650" letter-spacing="0">LEDs</text>
<line x1="717" y1="194" x2="717" y2="230" stroke="#2b333e" stroke-width="2" marker-end="url(#ah)"/>
<rect x="24" y="330" width="832" height="116" rx="12" fill="#10151c" stroke="#2b333e" stroke-width="1"/>
<text x="40" y="354" font-family="-apple-system,BlinkMacSystemFont,Segoe UI,Roboto,Helvetica,Arial,sans-serif" font-size="11" fill="#8b949e" text-anchor="start" font-weight="700" letter-spacing="1">CORE 1 — raw TinyUSB CDC (WebSerial)</text>
<rect x="40" y="368" width="250" height="56" rx="7" fill="#1c232d" stroke="#2b333e" stroke-width="1"/><rect x="40" y="368" width="4" height="56" rx="2" fill="#a78bfa"/><text x="56" y="393" font-family="ui-monospace,SFMono-Regular,Menlo,Consolas,monospace" font-size="13.5" fill="#e6edf3" text-anchor="start" font-weight="650" letter-spacing="0">JSON commands →</text><text x="56" y="413" font-family="-apple-system,BlinkMacSystemFont,Segoe UI,Roboto,Helvetica,Arial,sans-serif" font-size="12" fill="#8b949e" text-anchor="start" font-weight="400" letter-spacing="0">ring buffer → core0</text>
<rect x="310" y="368" width="260" height="56" rx="7" fill="#1c232d" stroke="#2b333e" stroke-width="1"/><rect x="310" y="368" width="4" height="56" rx="2" fill="#38bdf8"/><text x="326" y="393" font-family="ui-monospace,SFMono-Regular,Menlo,Consolas,monospace" font-size="13.5" fill="#e6edf3" text-anchor="start" font-weight="650" letter-spacing="0">← live + state frames</text><text x="326" y="413" font-family="-apple-system,BlinkMacSystemFont,Segoe UI,Roboto,Helvetica,Arial,sans-serif" font-size="12" fill="#8b949e" text-anchor="start" font-weight="400" letter-spacing="0">seqlock snapshots</text>
<rect x="590" y="368" width="246" height="56" rx="7" fill="#1c232d" stroke="#2b333e" stroke-width="1"/><rect x="590" y="368" width="4" height="56" rx="2" fill="#3fb950"/><text x="606" y="393" font-family="ui-monospace,SFMono-Regular,Menlo,Consolas,monospace" font-size="13.5" fill="#e6edf3" text-anchor="start" font-weight="650" letter-spacing="0">flash_safe_execute</text><text x="606" y="413" font-family="-apple-system,BlinkMacSystemFont,Segoe UI,Roboto,Helvetica,Arial,sans-serif" font-size="12" fill="#8b949e" text-anchor="start" font-weight="400" letter-spacing="0">settings persistence</text>
<text x="300" y="300" font-family="-apple-system,BlinkMacSystemFont,Segoe UI,Roboto,Helvetica,Arial,sans-serif" font-size="11" fill="#8b949e" text-anchor="middle" font-weight="600" letter-spacing="0">lock-free: SPSC command ring (core1→core0) · seqlock snapshots (core0→core1)</text>
</svg>